<svg width="649" height="200" viewBox="0 0 649 200" fill="none" xmlns="http://www.w3.org/2000/svg">
<rect x="579" y="200" width="579" height="200" rx="35" transform="rotate(-180 579 200)" fill="url(#paint0_linear_2_7)"/>
<rect x="179" y="175" width="150" height="150" rx="30" transform="rotate(-180 179 175)" fill="black" fill-opacity="0.47"/>
<path d="M217.818 93.776C219.055 94.1387 220.09 94.2453 220.922 94.096C221.775 93.9253 222.532 93.328 223.194 92.304L224.282 90.672L224.762 90.128L232.186 75.6H237.274L227.738 93.328C226.884 94.928 225.871 96.1547 224.698 97.008C223.546 97.8613 222.276 98.3413 220.89 98.448C219.503 98.576 218.063 98.3307 216.57 97.712L217.818 93.776ZM224.666 94.448L214.554 75.6H220.09L227.514 90.64L224.666 94.448ZM248.884 98V80.784H257.684C259.839 80.784 261.524 81.1787 262.74 81.968C263.956 82.736 264.564 83.824 264.564 85.232C264.564 86.64 263.988 87.7493 262.836 88.56C261.706 89.3493 260.202 89.744 258.324 89.744L258.836 88.592C260.927 88.592 262.484 88.976 263.508 89.744C264.554 90.512 265.076 91.632 265.076 93.104C265.076 94.6187 264.5 95.8133 263.348 96.688C262.196 97.5627 260.436 98 258.068 98H248.884ZM253.46 94.608H257.652C258.57 94.608 259.252 94.4587 259.7 94.16C260.17 93.84 260.404 93.36 260.404 92.72C260.404 92.0587 260.191 91.5787 259.764 91.28C259.338 90.96 258.666 90.8 257.748 90.8H253.46V94.608ZM253.46 87.856H257.236C258.111 87.856 258.762 87.696 259.188 87.376C259.636 87.056 259.86 86.5973 259.86 86C259.86 85.3813 259.636 84.9227 259.188 84.624C258.762 84.3253 258.111 84.176 257.236 84.176H253.46V87.856ZM279.095 98V94.64L278.775 93.904V87.888C278.775 86.8213 278.444 85.9893 277.783 85.392C277.143 84.7947 276.151 84.496 274.807 84.496C273.889 84.496 272.983 84.6453 272.087 84.944C271.212 85.2213 270.465 85.6053 269.847 86.096L268.055 82.608C268.993 81.9467 270.124 81.4347 271.447 81.072C272.769 80.7093 274.113 80.528 275.479 80.528C278.103 80.528 280.14 81.1467 281.591 82.384C283.041 83.6213 283.767 85.552 283.767 88.176V98H279.095ZM273.847 98.256C272.503 98.256 271.351 98.032 270.391 97.584C269.431 97.1147 268.695 96.4853 268.183 95.696C267.671 94.9067 267.415 94.0213 267.415 93.04C267.415 92.016 267.66 91.12 268.151 90.352C268.663 89.584 269.463 88.9867 270.551 88.56C271.639 88.112 273.057 87.888 274.807 87.888H279.383V90.8H275.351C274.177 90.8 273.367 90.992 272.919 91.376C272.492 91.76 272.279 92.24 272.279 92.816C272.279 93.456 272.524 93.968 273.015 94.352C273.527 94.7147 274.22 94.896 275.095 94.896C275.927 94.896 276.673 94.704 277.335 94.32C277.996 93.9147 278.476 93.328 278.775 92.56L279.543 94.864C279.18 95.9733 278.519 96.816 277.559 97.392C276.599 97.968 275.361 98.256 273.847 98.256ZM296.295 98.256C294.439 98.256 292.786 97.8827 291.335 97.136C289.884 96.368 288.743 95.312 287.911 93.968C287.1 92.624 286.695 91.0987 286.695 89.392C286.695 87.664 287.1 86.1387 287.911 84.816C288.743 83.472 289.884 82.4267 291.335 81.68C292.786 80.912 294.439 80.528 296.295 80.528C298.108 80.528 299.687 80.912 301.031 81.68C302.375 82.4267 303.367 83.504 304.007 84.912L300.135 86.992C299.687 86.1813 299.122 85.584 298.439 85.2C297.778 84.816 297.052 84.624 296.263 84.624C295.41 84.624 294.642 84.816 293.959 85.2C293.276 85.584 292.732 86.128 292.327 86.832C291.943 87.536 291.751 88.3893 291.751 89.392C291.751 90.3947 291.943 91.248 292.327 91.952C292.732 92.656 293.276 93.2 293.959 93.584C294.642 93.968 295.41 94.16 296.263 94.16C297.052 94.16 297.778 93.9787 298.439 93.616C299.122 93.232 299.687 92.624 300.135 91.792L304.007 93.904C303.367 95.2907 302.375 96.368 301.031 97.136C299.687 97.8827 298.108 98.256 296.295 98.256ZM324.519 98.256C322.556 98.256 320.828 97.872 319.335 97.104C317.863 96.336 316.722 95.2907 315.911 93.968C315.1 92.624 314.695 91.0987 314.695 89.392C314.695 87.664 315.09 86.1387 315.879 84.816C316.69 83.472 317.788 82.4267 319.175 81.68C320.562 80.912 322.13 80.528 323.879 80.528C325.564 80.528 327.079 80.8907 328.423 81.616C329.788 82.32 330.866 83.344 331.655 84.688C332.444 86.0107 332.839 87.6 332.839 89.456C332.839 89.648 332.828 89.872 332.807 90.128C332.786 90.3627 332.764 90.5867 332.743 90.8H318.759V87.888H330.119L328.199 88.752C328.199 87.856 328.018 87.0773 327.655 86.416C327.292 85.7547 326.791 85.2427 326.151 84.88C325.511 84.496 324.764 84.304 323.911 84.304C323.058 84.304 322.3 84.496 321.639 84.88C320.999 85.2427 320.498 85.7653 320.135 86.448C319.772 87.1093 319.591 87.8987 319.591 88.816V89.584C319.591 90.5227 319.794 91.3547 320.199 92.08C320.626 92.784 321.212 93.328 321.959 93.712C322.727 94.0747 323.623 94.256 324.647 94.256C325.564 94.256 326.364 94.1173 327.047 93.84C327.751 93.5627 328.391 93.1467 328.967 92.592L331.623 95.472C330.834 96.368 329.842 97.0613 328.647 97.552C327.452 98.0213 326.076 98.256 324.519 98.256ZM344.858 98.256C343.002 98.256 341.348 97.8827 339.898 97.136C338.447 96.368 337.306 95.312 336.474 93.968C335.663 92.624 335.258 91.0987 335.258 89.392C335.258 87.664 335.663 86.1387 336.474 84.816C337.306 83.472 338.447 82.4267 339.898 81.68C341.348 80.912 343.002 80.528 344.858 80.528C346.671 80.528 348.25 80.912 349.594 81.68C350.938 82.4267 351.93 83.504 352.57 84.912L348.698 86.992C348.25 86.1813 347.684 85.584 347.002 85.2C346.34 84.816 345.615 84.624 344.826 84.624C343.972 84.624 343.204 84.816 342.522 85.2C341.839 85.584 341.295 86.128 340.89 86.832C340.506 87.536 340.314 88.3893 340.314 89.392C340.314 90.3947 340.506 91.248 340.89 91.952C341.295 92.656 341.839 93.2 342.522 93.584C343.204 93.968 343.972 94.16 344.826 94.16C345.615 94.16 346.34 93.9787 347.002 93.616C347.684 93.232 348.25 92.624 348.698 91.792L352.57 93.904C351.93 95.2907 350.938 96.368 349.594 97.136C348.25 97.8827 346.671 98.256 344.858 98.256ZM359.252 98V83.728L360.372 84.88H353.428V80.784H370.036V84.88H363.092L364.212 83.728V98H359.252ZM382.009 86.288C384.27 86.3093 385.988 86.8213 387.161 87.824C388.356 88.8053 388.953 90.2027 388.953 92.016C388.953 93.9147 388.281 95.3973 386.937 96.464C385.593 97.5093 383.726 98.032 381.337 98.032L372.697 98V80.784H377.657V86.288H382.009ZM380.889 94.48C381.849 94.5013 382.585 94.2987 383.097 93.872C383.609 93.4453 383.865 92.8053 383.865 91.952C383.865 91.0987 383.609 90.4907 383.097 90.128C382.585 89.744 381.849 89.5413 380.889 89.52L377.657 89.488V94.48H380.889ZM406.958 98.32C408.58 98.32 410.03 98.1067 411.31 97.68C412.612 97.232 413.636 96.6027 414.382 95.792C415.15 94.96 415.534 93.9893 415.534 92.88C415.534 91.5787 414.99 90.5547 413.902 89.808C412.814 89.04 411.321 88.656 409.422 88.656L409.294 89.648C410.382 89.648 411.364 89.4667 412.238 89.104C413.113 88.72 413.796 88.1973 414.286 87.536C414.798 86.8747 415.054 86.128 415.054 85.296C415.054 84.2507 414.681 83.3653 413.934 82.64C413.209 81.9147 412.206 81.36 410.926 80.976C409.646 80.592 408.206 80.4213 406.606 80.464C405.518 80.4853 404.42 80.6347 403.31 80.912C402.201 81.1893 401.081 81.5627 399.95 82.032L401.166 85.488C402.126 85.104 403.065 84.816 403.982 84.624C404.9 84.4107 405.785 84.304 406.638 84.304C407.385 84.304 408.004 84.3787 408.494 84.528C408.985 84.656 409.358 84.848 409.614 85.104C409.87 85.36 409.998 85.6693 409.998 86.032C409.998 86.3733 409.892 86.672 409.678 86.928C409.486 87.1627 409.188 87.344 408.782 87.472C408.377 87.6 407.886 87.664 407.31 87.664H404.206V90.768H407.726C408.622 90.768 409.305 90.9173 409.774 91.216C410.244 91.4933 410.478 91.9093 410.478 92.464C410.478 92.8907 410.329 93.2533 410.03 93.552C409.732 93.8507 409.294 94.0853 408.718 94.256C408.164 94.4053 407.502 94.48 406.734 94.48C405.668 94.48 404.612 94.3733 403.566 94.16C402.542 93.9253 401.593 93.5947 400.718 93.168L399.374 96.656C400.484 97.2107 401.689 97.6267 402.99 97.904C404.313 98.1813 405.636 98.32 406.958 98.32ZM429.407 98V94.64L429.087 93.904V87.888C429.087 86.8213 428.756 85.9893 428.095 85.392C427.455 84.7947 426.463 84.496 425.119 84.496C424.202 84.496 423.295 84.6453 422.399 84.944C421.524 85.2213 420.778 85.6053 420.159 86.096L418.367 82.608C419.306 81.9467 420.436 81.4347 421.759 81.072C423.082 80.7093 424.426 80.528 425.791 80.528C428.415 80.528 430.452 81.1467 431.903 82.384C433.354 83.6213 434.079 85.552 434.079 88.176V98H429.407ZM424.159 98.256C422.815 98.256 421.663 98.032 420.703 97.584C419.743 97.1147 419.007 96.4853 418.495 95.696C417.983 94.9067 417.727 94.0213 417.727 93.04C417.727 92.016 417.972 91.12 418.463 90.352C418.975 89.584 419.775 88.9867 420.863 88.56C421.951 88.112 423.37 87.888 425.119 87.888H429.695V90.8H425.663C424.49 90.8 423.679 90.992 423.231 91.376C422.804 91.76 422.591 92.24 422.591 92.816C422.591 93.456 422.836 93.968 423.327 94.352C423.839 94.7147 424.532 94.896 425.407 94.896C426.239 94.896 426.986 94.704 427.647 94.32C428.308 93.9147 428.788 93.328 429.087 92.56L429.855 94.864C429.492 95.9733 428.831 96.816 427.871 97.392C426.911 97.968 425.674 98.256 424.159 98.256ZM438.416 98V80.784H443.632L450.128 92.56H448.048L454.992 80.784H459.664L459.728 98H455.216V85.904L455.984 86.416L450.064 96.336H447.952L442 86.064L442.928 85.84V98H438.416ZM472.925 98.256C470.963 98.256 469.235 97.872 467.741 97.104C466.269 96.336 465.128 95.2907 464.317 93.968C463.507 92.624 463.101 91.0987 463.101 89.392C463.101 87.664 463.496 86.1387 464.285 84.816C465.096 83.472 466.195 82.4267 467.581 81.68C468.968 80.912 470.536 80.528 472.285 80.528C473.971 80.528 475.485 80.8907 476.829 81.616C478.195 82.32 479.272 83.344 480.061 84.688C480.851 86.0107 481.245 87.6 481.245 89.456C481.245 89.648 481.235 89.872 481.213 90.128C481.192 90.3627 481.171 90.5867 481.149 90.8H467.165V87.888H478.525L476.605 88.752C476.605 87.856 476.424 87.0773 476.061 86.416C475.699 85.7547 475.197 85.2427 474.557 84.88C473.917 84.496 473.171 84.304 472.317 84.304C471.464 84.304 470.707 84.496 470.045 84.88C469.405 85.2427 468.904 85.7653 468.541 86.448C468.179 87.1093 467.997 87.8987 467.997 88.816V89.584C467.997 90.5227 468.2 91.3547 468.605 92.08C469.032 92.784 469.619 93.328 470.365 93.712C471.133 94.0747 472.029 94.256 473.053 94.256C473.971 94.256 474.771 94.1173 475.453 93.84C476.157 93.5627 476.797 93.1467 477.373 92.592L480.029 95.472C479.24 96.368 478.248 97.0613 477.053 97.552C475.859 98.0213 474.483 98.256 472.925 98.256ZM488.158 98V83.728L489.278 84.88H482.334V80.784H498.942V84.88H491.998L493.118 83.728V98H488.158ZM513.795 98L508.035 89.84L512.099 87.44L519.683 98H513.795ZM501.603 98V80.784H506.595V98H501.603ZM505.123 91.472V87.472H511.139V91.472H505.123ZM512.579 89.968L507.907 89.456L513.955 80.784H519.267L512.579 89.968ZM532.126 98V94.64L531.806 93.904V87.888C531.806 86.8213 531.475 85.9893 530.814 85.392C530.174 84.7947 529.182 84.496 527.838 84.496C526.921 84.496 526.014 84.6453 525.118 84.944C524.243 85.2213 523.497 85.6053 522.878 86.096L521.086 82.608C522.025 81.9467 523.155 81.4347 524.478 81.072C525.801 80.7093 527.145 80.528 528.51 80.528C531.134 80.528 533.171 81.1467 534.622 82.384C536.073 83.6213 536.798 85.552 536.798 88.176V98H532.126ZM526.878 98.256C525.534 98.256 524.382 98.032 523.422 97.584C522.462 97.1147 521.726 96.4853 521.214 95.696C520.702 94.9067 520.446 94.0213 520.446 93.04C520.446 92.016 520.691 91.12 521.182 90.352C521.694 89.584 522.494 88.9867 523.582 88.56C524.67 88.112 526.089 87.888 527.838 87.888H532.414V90.8H528.382C527.209 90.8 526.398 90.992 525.95 91.376C525.523 91.76 525.31 92.24 525.31 92.816C525.31 93.456 525.555 93.968 526.046 94.352C526.558 94.7147 527.251 94.896 528.126 94.896C528.958 94.896 529.705 94.704 530.366 94.32C531.027 93.9147 531.507 93.328 531.806 92.56L532.574 94.864C532.211 95.9733 531.55 96.816 530.59 97.392C529.63 97.968 528.393 98.256 526.878 98.256Z" fill="white"/>
<path d="M214.962 121.09C214.172 121.09 213.442 120.96 212.772 120.7C212.102 120.43 211.522 120.055 211.032 119.575C210.542 119.095 210.157 118.53 209.877 117.88C209.607 117.23 209.472 116.52 209.472 115.75C209.472 114.98 209.607 114.27 209.877 113.62C210.157 112.97 210.542 112.405 211.032 111.925C211.532 111.445 212.117 111.075 212.787 110.815C213.457 110.545 214.187 110.41 214.977 110.41C215.737 110.41 216.452 110.54 217.122 110.8C217.792 111.05 218.357 111.43 218.817 111.94L218.112 112.645C217.682 112.205 217.207 111.89 216.687 111.7C216.167 111.5 215.607 111.4 215.007 111.4C214.377 111.4 213.792 111.51 213.252 111.73C212.712 111.94 212.242 112.245 211.842 112.645C211.442 113.035 211.127 113.495 210.897 114.025C210.677 114.545 210.567 115.12 210.567 115.75C210.567 116.38 210.677 116.96 210.897 117.49C211.127 118.01 211.442 118.47 211.842 118.87C212.242 119.26 212.712 119.565 213.252 119.785C213.792 119.995 214.377 120.1 215.007 120.1C215.607 120.1 216.167 120 216.687 119.8C217.207 119.6 217.682 119.28 218.112 118.84L218.817 119.545C218.357 120.055 217.792 120.44 217.122 120.7C216.452 120.96 215.732 121.09 214.962 121.09ZM226.629 121L223.389 117.1L224.274 116.575L227.889 121H226.629ZM220.854 121V113.125H221.919V121H220.854ZM221.589 117.49V116.575H224.124V117.49H221.589ZM224.364 117.175L223.374 117.025L226.509 113.125H227.664L224.364 117.175ZM234.313 121V119.26L234.268 118.975V116.065C234.268 115.395 234.078 114.88 233.698 114.52C233.328 114.16 232.773 113.98 232.033 113.98C231.523 113.98 231.038 114.065 230.578 114.235C230.118 114.405 229.728 114.63 229.408 114.91L228.928 114.115C229.328 113.775 229.808 113.515 230.368 113.335C230.928 113.145 231.518 113.05 232.138 113.05C233.158 113.05 233.943 113.305 234.493 113.815C235.053 114.315 235.333 115.08 235.333 116.11V121H234.313ZM231.598 121.075C231.008 121.075 230.493 120.98 230.053 120.79C229.623 120.59 229.293 120.32 229.063 119.98C228.833 119.63 228.718 119.23 228.718 118.78C228.718 118.37 228.813 118 229.003 117.67C229.203 117.33 229.523 117.06 229.963 116.86C230.413 116.65 231.013 116.545 231.763 116.545H234.478V117.34H231.793C231.033 117.34 230.503 117.475 230.203 117.745C229.913 118.015 229.768 118.35 229.768 118.75C229.768 119.2 229.943 119.56 230.293 119.83C230.643 120.1 231.133 120.235 231.763 120.235C232.363 120.235 232.878 120.1 233.308 119.83C233.748 119.55 234.068 119.15 234.268 118.63L234.508 119.365C234.308 119.885 233.958 120.3 233.458 120.61C232.968 120.92 232.348 121.075 231.598 121.075ZM247.513 121L244.813 117.1L245.698 116.575L248.788 121H247.513ZM243.043 117.49V116.575H245.533V117.49H243.043ZM245.803 117.175L244.783 117.025L247.408 113.125H248.563L245.803 117.175ZM238.183 121H236.908L239.998 116.575L240.868 117.1L238.183 121ZM243.373 121H242.308V113.125H243.373V121ZM242.638 117.49H240.163V116.575H242.638V117.49ZM239.908 117.175L237.133 113.125H238.288L240.898 117.025L239.908 117.175ZM250.561 121V113.125H251.626V119.38L256.891 113.125H257.836V121H256.771V114.73L251.521 121H250.561ZM262.388 121V113.77L262.658 114.055H259.403V113.125H266.438V114.055H263.183L263.453 113.77V121H262.388ZM270.987 121.075C270.167 121.075 269.447 120.905 268.827 120.565C268.207 120.215 267.722 119.74 267.372 119.14C267.022 118.53 266.847 117.835 266.847 117.055C266.847 116.275 267.012 115.585 267.342 114.985C267.682 114.385 268.142 113.915 268.722 113.575C269.312 113.225 269.972 113.05 270.702 113.05C271.442 113.05 272.097 113.22 272.667 113.56C273.247 113.89 273.702 114.36 274.032 114.97C274.362 115.57 274.527 116.265 274.527 117.055C274.527 117.105 274.522 117.16 274.512 117.22C274.512 117.27 274.512 117.325 274.512 117.385H267.657V116.59H273.942L273.522 116.905C273.522 116.335 273.397 115.83 273.147 115.39C272.907 114.94 272.577 114.59 272.157 114.34C271.737 114.09 271.252 113.965 270.702 113.965C270.162 113.965 269.677 114.09 269.247 114.34C268.817 114.59 268.482 114.94 268.242 115.39C268.002 115.84 267.882 116.355 267.882 116.935V117.1C267.882 117.7 268.012 118.23 268.272 118.69C268.542 119.14 268.912 119.495 269.382 119.755C269.862 120.005 270.407 120.13 271.017 120.13C271.497 120.13 271.942 120.045 272.352 119.875C272.772 119.705 273.132 119.445 273.432 119.095L274.032 119.785C273.682 120.205 273.242 120.525 272.712 120.745C272.192 120.965 271.617 121.075 270.987 121.075ZM281.065 121V110.5H287.74V111.46H281.86L282.145 111.175L282.16 121H281.065ZM290.349 121.075C289.589 121.075 288.904 120.905 288.294 120.565C287.694 120.215 287.219 119.74 286.869 119.14C286.519 118.53 286.344 117.835 286.344 117.055C286.344 116.265 286.519 115.57 286.869 114.97C287.219 114.37 287.694 113.9 288.294 113.56C288.894 113.22 289.579 113.05 290.349 113.05C291.129 113.05 291.819 113.22 292.419 113.56C293.029 113.9 293.504 114.37 293.844 114.97C294.194 115.57 294.369 116.265 294.369 117.055C294.369 117.835 294.194 118.53 293.844 119.14C293.504 119.74 293.029 120.215 292.419 120.565C291.809 120.905 291.119 121.075 290.349 121.075ZM290.349 120.13C290.919 120.13 291.424 120.005 291.864 119.755C292.304 119.495 292.649 119.135 292.899 118.675C293.159 118.205 293.289 117.665 293.289 117.055C293.289 116.435 293.159 115.895 292.899 115.435C292.649 114.975 292.304 114.62 291.864 114.37C291.424 114.11 290.924 113.98 290.364 113.98C289.804 113.98 289.304 114.11 288.864 114.37C288.424 114.62 288.074 114.975 287.814 115.435C287.554 115.895 287.424 116.435 287.424 117.055C287.424 117.665 287.554 118.205 287.814 118.675C288.074 119.135 288.424 119.495 288.864 119.755C289.304 120.005 289.799 120.13 290.349 120.13ZM301.82 120.07L301.58 120.355V113.125H302.645V120.355L302.36 120.07H306.755L306.47 120.355V113.125H307.535V121H296.645V113.125H297.71V120.355L297.44 120.07H301.82ZM313.936 121.075C313.116 121.075 312.396 120.905 311.776 120.565C311.156 120.215 310.671 119.74 310.321 119.14C309.971 118.53 309.796 117.835 309.796 117.055C309.796 116.275 309.961 115.585 310.291 114.985C310.631 114.385 311.091 113.915 311.671 113.575C312.261 113.225 312.921 113.05 313.651 113.05C314.391 113.05 315.046 113.22 315.616 113.56C316.196 113.89 316.651 114.36 316.981 114.97C317.311 115.57 317.476 116.265 317.476 117.055C317.476 117.105 317.471 117.16 317.461 117.22C317.461 117.27 317.461 117.325 317.461 117.385H310.606V116.59H316.891L316.471 116.905C316.471 116.335 316.346 115.83 316.096 115.39C315.856 114.94 315.526 114.59 315.106 114.34C314.686 114.09 314.201 113.965 313.651 113.965C313.111 113.965 312.626 114.09 312.196 114.34C311.766 114.59 311.431 114.94 311.191 115.39C310.951 115.84 310.831 116.355 310.831 116.935V117.1C310.831 117.7 310.961 118.23 311.221 118.69C311.491 119.14 311.861 119.495 312.331 119.755C312.811 120.005 313.356 120.13 313.966 120.13C314.446 120.13 314.891 120.045 315.301 119.875C315.721 119.705 316.081 119.445 316.381 119.095L316.981 119.785C316.631 120.205 316.191 120.525 315.661 120.745C315.141 120.965 314.566 121.075 313.936 121.075ZM324.584 109.87L323.924 112.645L323.804 112C324.044 112 324.239 112.075 324.389 112.225C324.539 112.365 324.614 112.555 324.614 112.795C324.614 113.035 324.539 113.23 324.389 113.38C324.239 113.53 324.054 113.605 323.834 113.605C323.594 113.605 323.399 113.53 323.249 113.38C323.109 113.22 323.039 113.025 323.039 112.795C323.039 112.705 323.044 112.625 323.054 112.555C323.064 112.485 323.084 112.4 323.114 112.3C323.144 112.2 323.184 112.08 323.234 111.94L323.864 109.87H324.584ZM327.134 109.87L326.474 112.645L326.354 112C326.594 112 326.789 112.075 326.939 112.225C327.089 112.365 327.164 112.555 327.164 112.795C327.164 113.035 327.089 113.23 326.939 113.38C326.789 113.53 326.604 113.605 326.384 113.605C326.144 113.605 325.949 113.53 325.799 113.38C325.659 113.22 325.589 113.025 325.589 112.795C325.589 112.705 325.594 112.625 325.604 112.555C325.614 112.485 325.634 112.4 325.664 112.3C325.694 112.2 325.734 112.08 325.784 111.94L326.414 109.87H327.134ZM328.497 119.74L328.902 118.945C329.362 119.345 329.877 119.645 330.447 119.845C331.027 120.035 331.607 120.135 332.187 120.145C332.767 120.145 333.297 120.06 333.777 119.89C334.267 119.72 334.662 119.47 334.962 119.14C335.262 118.8 335.412 118.39 335.412 117.91C335.412 117.3 335.167 116.83 334.677 116.5C334.197 116.17 333.527 116.005 332.667 116.005H330.417V115.105H332.607C333.347 115.105 333.922 114.95 334.332 114.64C334.752 114.32 334.962 113.88 334.962 113.32C334.962 112.92 334.842 112.58 334.602 112.3C334.372 112.01 334.052 111.79 333.642 111.64C333.242 111.48 332.792 111.395 332.292 111.385C331.792 111.365 331.272 111.43 330.732 111.58C330.202 111.72 329.687 111.945 329.187 112.255L328.827 111.34C329.447 110.97 330.092 110.715 330.762 110.575C331.432 110.425 332.082 110.375 332.712 110.425C333.342 110.475 333.907 110.62 334.407 110.86C334.917 111.1 335.322 111.415 335.622 111.805C335.922 112.195 336.072 112.66 336.072 113.2C336.072 113.7 335.942 114.14 335.682 114.52C335.432 114.9 335.077 115.195 334.617 115.405C334.167 115.605 333.632 115.705 333.012 115.705L333.072 115.375C333.772 115.375 334.377 115.485 334.887 115.705C335.407 115.925 335.807 116.24 336.087 116.65C336.377 117.05 336.522 117.52 336.522 118.06C336.522 118.57 336.392 119.025 336.132 119.425C335.882 119.815 335.532 120.145 335.082 120.415C334.642 120.675 334.147 120.865 333.597 120.985C333.047 121.095 332.472 121.125 331.872 121.075C331.272 121.025 330.682 120.895 330.102 120.685C329.522 120.465 328.987 120.15 328.497 119.74ZM343.913 121V119.26L343.868 118.975V116.065C343.868 115.395 343.678 114.88 343.298 114.52C342.928 114.16 342.373 113.98 341.633 113.98C341.123 113.98 340.638 114.065 340.178 114.235C339.718 114.405 339.328 114.63 339.008 114.91L338.528 114.115C338.928 113.775 339.408 113.515 339.968 113.335C340.528 113.145 341.118 113.05 341.738 113.05C342.758 113.05 343.543 113.305 344.093 113.815C344.653 114.315 344.933 115.08 344.933 116.11V121H343.913ZM341.198 121.075C340.608 121.075 340.093 120.98 339.653 120.79C339.223 120.59 338.893 120.32 338.663 119.98C338.433 119.63 338.318 119.23 338.318 118.78C338.318 118.37 338.413 118 338.603 117.67C338.803 117.33 339.123 117.06 339.563 116.86C340.013 116.65 340.613 116.545 341.363 116.545H344.078V117.34H341.393C340.633 117.34 340.103 117.475 339.803 117.745C339.513 118.015 339.368 118.35 339.368 118.75C339.368 119.2 339.543 119.56 339.893 119.83C340.243 120.1 340.733 120.235 341.363 120.235C341.963 120.235 342.478 120.1 342.908 119.83C343.348 119.55 343.668 119.15 343.868 118.63L344.108 119.365C343.908 119.885 343.558 120.3 343.058 120.61C342.568 120.92 341.948 121.075 341.198 121.075ZM347.768 121V113.125H348.848L352.418 119.17H351.968L355.598 113.125H356.588V121H355.613V114.34L355.808 114.43L352.418 120.04H351.938L348.518 114.37L348.743 114.325V121H347.768ZM362.994 121.075C362.174 121.075 361.454 120.905 360.834 120.565C360.214 120.215 359.729 119.74 359.379 119.14C359.029 118.53 358.854 117.835 358.854 117.055C358.854 116.275 359.019 115.585 359.349 114.985C359.689 114.385 360.149 113.915 360.729 113.575C361.319 113.225 361.979 113.05 362.709 113.05C363.449 113.05 364.104 113.22 364.674 113.56C365.254 113.89 365.709 114.36 366.039 114.97C366.369 115.57 366.534 116.265 366.534 117.055C366.534 117.105 366.529 117.16 366.519 117.22C366.519 117.27 366.519 117.325 366.519 117.385H359.664V116.59H365.949L365.529 116.905C365.529 116.335 365.404 115.83 365.154 115.39C364.914 114.94 364.584 114.59 364.164 114.34C363.744 114.09 363.259 113.965 362.709 113.965C362.169 113.965 361.684 114.09 361.254 114.34C360.824 114.59 360.489 114.94 360.249 115.39C360.009 115.84 359.889 116.355 359.889 116.935V117.1C359.889 117.7 360.019 118.23 360.279 118.69C360.549 119.14 360.919 119.495 361.389 119.755C361.869 120.005 362.414 120.13 363.024 120.13C363.504 120.13 363.949 120.045 364.359 119.875C364.779 119.705 365.139 119.445 365.439 119.095L366.039 119.785C365.689 120.205 365.249 120.525 364.719 120.745C364.199 120.965 363.624 121.075 362.994 121.075ZM370.039 121V113.77L370.309 114.055H367.054V113.125H374.089V114.055H370.834L371.104 113.77V121H370.039ZM381.404 121L378.164 117.1L379.049 116.575L382.664 121H381.404ZM375.629 121V113.125H376.694V121H375.629ZM376.364 117.49V116.575H378.899V117.49H376.364ZM379.139 117.175L378.149 117.025L381.284 113.125H382.439L379.139 117.175ZM389.089 121V119.26L389.044 118.975V116.065C389.044 115.395 388.854 114.88 388.474 114.52C388.104 114.16 387.549 113.98 386.809 113.98C386.299 113.98 385.814 114.065 385.354 114.235C384.894 114.405 384.504 114.63 384.184 114.91L383.704 114.115C384.104 113.775 384.584 113.515 385.144 113.335C385.704 113.145 386.294 113.05 386.914 113.05C387.934 113.05 388.719 113.305 389.269 113.815C389.829 114.315 390.109 115.08 390.109 116.11V121H389.089ZM386.374 121.075C385.784 121.075 385.269 120.98 384.829 120.79C384.399 120.59 384.069 120.32 383.839 119.98C383.609 119.63 383.494 119.23 383.494 118.78C383.494 118.37 383.589 118 383.779 117.67C383.979 117.33 384.299 117.06 384.739 116.86C385.189 116.65 385.789 116.545 386.539 116.545H389.254V117.34H386.569C385.809 117.34 385.279 117.475 384.979 117.745C384.689 118.015 384.544 118.35 384.544 118.75C384.544 119.2 384.719 119.56 385.069 119.83C385.419 120.1 385.909 120.235 386.539 120.235C387.139 120.235 387.654 120.1 388.084 119.83C388.524 119.55 388.844 119.15 389.044 118.63L389.284 119.365C389.084 119.885 388.734 120.3 388.234 120.61C387.744 120.92 387.124 121.075 386.374 121.075ZM392.269 113.53L392.929 110.77L393.049 111.4C392.819 111.4 392.624 111.33 392.464 111.19C392.314 111.04 392.239 110.845 392.239 110.605C392.239 110.365 392.314 110.17 392.464 110.02C392.624 109.87 392.814 109.795 393.034 109.795C393.264 109.795 393.449 109.875 393.589 110.035C393.739 110.185 393.814 110.375 393.814 110.605C393.814 110.685 393.809 110.765 393.799 110.845C393.789 110.925 393.769 111.015 393.739 111.115C393.719 111.205 393.684 111.32 393.634 111.46L392.989 113.53H392.269ZM394.819 113.53L395.479 110.77L395.599 111.4C395.369 111.4 395.174 111.33 395.014 111.19C394.864 111.04 394.789 110.845 394.789 110.605C394.789 110.365 394.864 110.17 395.014 110.02C395.174 109.87 395.364 109.795 395.584 109.795C395.814 109.795 395.999 109.875 396.139 110.035C396.289 110.185 396.364 110.375 396.364 110.605C396.364 110.685 396.359 110.765 396.349 110.845C396.339 110.925 396.319 111.015 396.289 111.115C396.269 111.205 396.234 111.32 396.184 111.46L395.539 113.53H394.819ZM407.577 117.67C407.117 117.87 406.652 118.03 406.182 118.15C405.722 118.26 405.262 118.315 404.802 118.315C403.872 118.315 403.137 118.105 402.597 117.685C402.057 117.255 401.787 116.595 401.787 115.705V113.125H402.837V115.645C402.837 116.245 403.032 116.695 403.422 116.995C403.812 117.295 404.337 117.445 404.997 117.445C405.397 117.445 405.817 117.395 406.257 117.295C406.697 117.185 407.142 117.03 407.592 116.83L407.577 117.67ZM407.487 121V113.125H408.552V121H407.487ZM413.077 121V113.77L413.347 114.055H410.092V113.125H417.127V114.055H413.872L414.142 113.77V121H413.077ZM421.54 121.075C420.78 121.075 420.095 120.905 419.485 120.565C418.885 120.215 418.41 119.74 418.06 119.14C417.71 118.53 417.535 117.835 417.535 117.055C417.535 116.265 417.71 115.57 418.06 114.97C418.41 114.37 418.885 113.9 419.485 113.56C420.085 113.22 420.77 113.05 421.54 113.05C422.32 113.05 423.01 113.22 423.61 113.56C424.22 113.9 424.695 114.37 425.035 114.97C425.385 115.57 425.56 116.265 425.56 117.055C425.56 117.835 425.385 118.53 425.035 119.14C424.695 119.74 424.22 120.215 423.61 120.565C423 120.905 422.31 121.075 421.54 121.075ZM421.54 120.13C422.11 120.13 422.615 120.005 423.055 119.755C423.495 119.495 423.84 119.135 424.09 118.675C424.35 118.205 424.48 117.665 424.48 117.055C424.48 116.435 424.35 115.895 424.09 115.435C423.84 114.975 423.495 114.62 423.055 114.37C422.615 114.11 422.115 113.98 421.555 113.98C420.995 113.98 420.495 114.11 420.055 114.37C419.615 114.62 419.265 114.975 419.005 115.435C418.745 115.895 418.615 116.435 418.615 117.055C418.615 117.665 418.745 118.205 419.005 118.675C419.265 119.135 419.615 119.495 420.055 119.755C420.495 120.005 420.99 120.13 421.54 120.13ZM427.368 117.4V116.47H431.298V117.4H427.368ZM437.368 121.09C436.728 121.09 436.158 120.985 435.658 120.775C435.168 120.565 434.748 120.245 434.398 119.815C434.048 119.385 433.783 118.855 433.603 118.225C433.423 117.585 433.333 116.845 433.333 116.005C433.333 115.255 433.403 114.6 433.543 114.04C433.683 113.47 433.878 112.98 434.128 112.57C434.378 112.16 434.668 111.815 434.998 111.535C435.338 111.245 435.703 111.015 436.093 110.845C436.493 110.665 436.903 110.53 437.323 110.44L440.863 109.615L441.043 110.605L437.713 111.355C437.503 111.405 437.248 111.475 436.948 111.565C436.658 111.655 436.358 111.79 436.048 111.97C435.748 112.15 435.468 112.4 435.208 112.72C434.948 113.04 434.738 113.455 434.578 113.965C434.428 114.465 434.353 115.09 434.353 115.84C434.353 116 434.358 116.13 434.368 116.23C434.378 116.32 434.388 116.42 434.398 116.53C434.418 116.63 434.433 116.78 434.443 116.98L433.978 116.59C434.088 115.98 434.313 115.45 434.653 115C434.993 114.54 435.418 114.185 435.928 113.935C436.448 113.675 437.023 113.545 437.653 113.545C438.383 113.545 439.033 113.705 439.603 114.025C440.173 114.335 440.618 114.77 440.938 115.33C441.268 115.89 441.433 116.54 441.433 117.28C441.433 118.01 441.263 118.665 440.923 119.245C440.593 119.825 440.123 120.28 439.513 120.61C438.903 120.93 438.188 121.09 437.368 121.09ZM437.488 120.205C438.048 120.205 438.543 120.08 438.973 119.83C439.403 119.57 439.738 119.22 439.978 118.78C440.228 118.34 440.353 117.845 440.353 117.295C440.353 116.755 440.228 116.275 439.978 115.855C439.738 115.435 439.403 115.105 438.973 114.865C438.543 114.615 438.043 114.49 437.473 114.49C436.913 114.49 436.418 114.61 435.988 114.85C435.558 115.08 435.218 115.405 434.968 115.825C434.728 116.245 434.608 116.73 434.608 117.28C434.608 117.83 434.728 118.325 434.968 118.765C435.218 119.205 435.558 119.555 435.988 119.815C436.428 120.075 436.928 120.205 437.488 120.205ZM451.395 121V113.125H452.46V121H451.395ZM447.03 115.9C448.02 115.91 448.775 116.13 449.295 116.56C449.815 116.99 450.075 117.61 450.075 118.42C450.075 119.26 449.795 119.905 449.235 120.355C448.675 120.805 447.875 121.025 446.835 121.015L443.715 121V113.125H444.78V115.87L447.03 115.9ZM446.76 120.205C447.5 120.215 448.055 120.07 448.425 119.77C448.805 119.46 448.995 119.01 448.995 118.42C448.995 117.83 448.81 117.4 448.44 117.13C448.07 116.85 447.51 116.705 446.76 116.695L444.78 116.665V120.175L446.76 120.205ZM459.418 121V113.125H462.898C463.788 113.125 464.488 113.295 464.998 113.635C465.518 113.975 465.778 114.475 465.778 115.135C465.778 115.775 465.533 116.27 465.043 116.62C464.553 116.96 463.908 117.13 463.108 117.13L463.318 116.815C464.258 116.815 464.948 116.99 465.388 117.34C465.828 117.69 466.048 118.195 466.048 118.855C466.048 119.535 465.798 120.065 465.298 120.445C464.808 120.815 464.043 121 463.003 121H459.418ZM460.453 120.16H462.958C463.628 120.16 464.133 120.055 464.473 119.845C464.823 119.625 464.998 119.275 464.998 118.795C464.998 118.315 464.843 117.965 464.533 117.745C464.223 117.525 463.733 117.415 463.063 117.415H460.453V120.16ZM460.453 116.62H462.823C463.433 116.62 463.898 116.505 464.218 116.275C464.548 116.045 464.713 115.71 464.713 115.27C464.713 114.83 464.548 114.5 464.218 114.28C463.898 114.06 463.433 113.95 462.823 113.95H460.453V116.62ZM476.224 121V113.125H477.289V121H476.224ZM471.859 115.9C472.849 115.91 473.604 116.13 474.124 116.56C474.644 116.99 474.904 117.61 474.904 118.42C474.904 119.26 474.624 119.905 474.064 120.355C473.504 120.805 472.704 121.025 471.664 121.015L468.544 121V113.125H469.609V115.87L471.859 115.9ZM471.589 120.205C472.329 120.215 472.884 120.07 473.254 119.77C473.634 119.46 473.824 119.01 473.824 118.42C473.824 117.83 473.639 117.4 473.269 117.13C472.899 116.85 472.339 116.705 471.589 116.695L469.609 116.665V120.175L471.589 120.205ZM480.322 121V113.125H483.802C484.692 113.125 485.392 113.295 485.902 113.635C486.422 113.975 486.682 114.475 486.682 115.135C486.682 115.775 486.437 116.27 485.947 116.62C485.457 116.96 484.812 117.13 484.012 117.13L484.222 116.815C485.162 116.815 485.852 116.99 486.292 117.34C486.732 117.69 486.952 118.195 486.952 118.855C486.952 119.535 486.702 120.065 486.202 120.445C485.712 120.815 484.947 121 483.907 121H480.322ZM481.357 120.16H483.862C484.532 120.16 485.037 120.055 485.377 119.845C485.727 119.625 485.902 119.275 485.902 118.795C485.902 118.315 485.747 117.965 485.437 117.745C485.127 117.525 484.637 117.415 483.967 117.415H481.357V120.16ZM481.357 116.62H483.727C484.337 116.62 484.802 116.505 485.122 116.275C485.452 116.045 485.617 115.71 485.617 115.27C485.617 114.83 485.452 114.5 485.122 114.28C484.802 114.06 484.337 113.95 483.727 113.95H481.357V116.62ZM492.823 121.075C492.003 121.075 491.283 120.905 490.663 120.565C490.043 120.215 489.558 119.74 489.208 119.14C488.858 118.53 488.683 117.835 488.683 117.055C488.683 116.275 488.848 115.585 489.178 114.985C489.518 114.385 489.978 113.915 490.558 113.575C491.148 113.225 491.808 113.05 492.538 113.05C493.278 113.05 493.933 113.22 494.503 113.56C495.083 113.89 495.538 114.36 495.868 114.97C496.198 115.57 496.363 116.265 496.363 117.055C496.363 117.105 496.358 117.16 496.348 117.22C496.348 117.27 496.348 117.325 496.348 117.385H489.493V116.59H495.778L495.358 116.905C495.358 116.335 495.233 115.83 494.983 115.39C494.743 114.94 494.413 114.59 493.993 114.34C493.573 114.09 493.088 113.965 492.538 113.965C491.998 113.965 491.513 114.09 491.083 114.34C490.653 114.59 490.318 114.94 490.078 115.39C489.838 115.84 489.718 116.355 489.718 116.935V117.1C489.718 117.7 489.848 118.23 490.108 118.69C490.378 119.14 490.748 119.495 491.218 119.755C491.698 120.005 492.243 120.13 492.853 120.13C493.333 120.13 493.778 120.045 494.188 119.875C494.608 119.705 494.968 119.445 495.268 119.095L495.868 119.785C495.518 120.205 495.078 120.525 494.548 120.745C494.028 120.965 493.453 121.075 492.823 121.075ZM502.02 121.075C501.24 121.075 500.54 120.905 499.92 120.565C499.31 120.215 498.83 119.74 498.48 119.14C498.13 118.53 497.955 117.835 497.955 117.055C497.955 116.265 498.13 115.57 498.48 114.97C498.83 114.37 499.31 113.9 499.92 113.56C500.54 113.22 501.24 113.05 502.02 113.05C502.69 113.05 503.295 113.18 503.835 113.44C504.375 113.7 504.8 114.09 505.11 114.61L504.315 115.15C504.045 114.75 503.71 114.455 503.31 114.265C502.91 114.075 502.475 113.98 502.005 113.98C501.445 113.98 500.94 114.11 500.49 114.37C500.04 114.62 499.685 114.975 499.425 115.435C499.165 115.895 499.035 116.435 499.035 117.055C499.035 117.675 499.165 118.215 499.425 118.675C499.685 119.135 500.04 119.495 500.49 119.755C500.94 120.005 501.445 120.13 502.005 120.13C502.475 120.13 502.91 120.035 503.31 119.845C503.71 119.655 504.045 119.365 504.315 118.975L505.11 119.515C504.8 120.025 504.375 120.415 503.835 120.685C503.295 120.945 502.69 121.075 502.02 121.075ZM508.526 121V113.77L508.796 114.055H505.541V113.125H512.576V114.055H509.321L509.591 113.77V121H508.526ZM514.116 121V113.125H515.181V119.38L520.446 113.125H521.391V121H520.326V114.73L515.076 121H514.116ZM531.744 121.075C530.924 121.075 530.204 120.905 529.584 120.565C528.964 120.215 528.479 119.74 528.129 119.14C527.779 118.53 527.604 117.835 527.604 117.055C527.604 116.275 527.769 115.585 528.099 114.985C528.439 114.385 528.899 113.915 529.479 113.575C530.069 113.225 530.729 113.05 531.459 113.05C532.199 113.05 532.854 113.22 533.424 113.56C534.004 113.89 534.459 114.36 534.789 114.97C535.119 115.57 535.284 116.265 535.284 117.055C535.284 117.105 535.279 117.16 535.269 117.22C535.269 117.27 535.269 117.325 535.269 117.385H528.414V116.59H534.699L534.279 116.905C534.279 116.335 534.154 115.83 533.904 115.39C533.664 114.94 533.334 114.59 532.914 114.34C532.494 114.09 532.009 113.965 531.459 113.965C530.919 113.965 530.434 114.09 530.004 114.34C529.574 114.59 529.239 114.94 528.999 115.39C528.759 115.84 528.639 116.355 528.639 116.935V117.1C528.639 117.7 528.769 118.23 529.029 118.69C529.299 119.14 529.669 119.495 530.139 119.755C530.619 120.005 531.164 120.13 531.774 120.13C532.254 120.13 532.699 120.045 533.109 119.875C533.529 119.705 533.889 119.445 534.189 119.095L534.789 119.785C534.439 120.205 533.999 120.525 533.469 120.745C532.949 120.965 532.374 121.075 531.744 121.075ZM541.016 121.075C540.196 121.075 539.476 120.905 538.856 120.565C538.236 120.215 537.751 119.74 537.401 119.14C537.051 118.53 536.876 117.835 536.876 117.055C536.876 116.275 537.041 115.585 537.371 114.985C537.711 114.385 538.171 113.915 538.751 113.575C539.341 113.225 540.001 113.05 540.731 113.05C541.471 113.05 542.126 113.22 542.696 113.56C543.276 113.89 543.731 114.36 544.061 114.97C544.391 115.57 544.556 116.265 544.556 117.055C544.556 117.105 544.551 117.16 544.541 117.22C544.541 117.27 544.541 117.325 544.541 117.385H537.686V116.59H543.971L543.551 116.905C543.551 116.335 543.426 115.83 543.176 115.39C542.936 114.94 542.606 114.59 542.186 114.34C541.766 114.09 541.281 113.965 540.731 113.965C540.191 113.965 539.706 114.09 539.276 114.34C538.846 114.59 538.511 114.94 538.271 115.39C538.031 115.84 537.911 116.355 537.911 116.935V117.1C537.911 117.7 538.041 118.23 538.301 118.69C538.571 119.14 538.941 119.495 539.411 119.755C539.891 120.005 540.436 120.13 541.046 120.13C541.526 120.13 541.971 120.045 542.381 119.875C542.801 119.705 543.161 119.445 543.461 119.095L544.061 119.785C543.711 120.205 543.271 120.525 542.741 120.745C542.221 120.965 541.646 121.075 541.016 121.075ZM542.066 111.55C541.896 111.55 541.746 111.49 541.616 111.37C541.486 111.25 541.421 111.095 541.421 110.905C541.421 110.715 541.486 110.56 541.616 110.44C541.746 110.32 541.896 110.26 542.066 110.26C542.246 110.26 542.396 110.32 542.516 110.44C542.646 110.56 542.711 110.715 542.711 110.905C542.711 111.095 542.646 111.25 542.516 111.37C542.396 111.49 542.246 111.55 542.066 111.55ZM539.396 111.55C539.216 111.55 539.061 111.49 538.931 111.37C538.811 111.25 538.751 111.095 538.751 110.905C538.751 110.715 538.811 110.56 538.931 110.44C539.061 110.32 539.216 110.26 539.396 110.26C539.566 110.26 539.716 110.32 539.846 110.44C539.976 110.56 540.041 110.715 540.041 110.905C540.041 111.095 539.976 111.25 539.846 111.37C539.716 111.49 539.566 111.55 539.396 111.55Z" fill="white"/>
<path d="M94.3091 135V82.968H112.549V135H94.3091ZM103.429 77.208C100.101 77.208 97.4131 76.28 95.3651 74.424C93.3171 72.568 92.2931 70.264 92.2931 67.512C92.2931 64.76 93.3171 62.456 95.3651 60.6C97.4131 58.744 100.101 57.816 103.429 57.816C106.757 57.816 109.445 58.712 111.493 60.504C113.541 62.232 114.565 64.472 114.565 67.224C114.565 70.104 113.541 72.504 111.493 74.424C109.509 76.28 106.821 77.208 103.429 77.208Z" fill="#571A7C"/>
<defs>
<linearGradient id="paint0_linear_2_7" x1="1158" y1="400" x2="564.989" y2="341.126" gradientUnits="userSpaceOnUse">
<stop stop-color="#57197D"/>
<stop offset="1" stop-color="#2E2C32" stop-opacity="0.94"/>
</linearGradient>
</defs>
</svg>
