<svg width="150" height="150" viewBox="0 0 150 150" fill="none" xmlns="http://www.w3.org/2000/svg">
<rect x="150" y="150" width="150" height="150" rx="30" transform="rotate(-180 150 150)" fill="black" fill-opacity="0.47"/>
<path d="M65.3091 110V57.968H83.5491V110H65.3091ZM74.4291 52.208C71.1011 52.208 68.4131 51.28 66.3651 49.424C64.3171 47.568 63.2931 45.264 63.2931 42.512C63.2931 39.76 64.3171 37.456 66.3651 35.6C68.4131 33.744 71.1011 32.816 74.4291 32.816C77.7571 32.816 80.4451 33.712 82.4931 35.504C84.5411 37.232 85.5651 39.472 85.5651 42.224C85.5651 45.104 84.5411 47.504 82.4931 49.424C80.5091 51.28 77.8211 52.208 74.4291 52.208Z" fill="#571A7C"/>
</svg>
