<?xml version="1.0" encoding="iso-8859-1"?>
<!-- Generator: Adobe Illustrator 19.0.0, SVG Export Plug-In . SVG Version: 6.00 Build 0)  -->
<svg version="1.1" id="Layer_1" xmlns="http://www.w3.org/2000/svg" xmlns:xlink="http://www.w3.org/1999/xlink" x="0px" y="0px"
	 viewBox="0 0 512 512" style="enable-background:new 0 0 512 512;" xml:space="preserve">
<path style="fill:#6790BF;" d="M144.696,256c0-61.472,49.832-111.304,111.304-111.304l22.261-72.348L256,0h-44.522v60.625
	c-22.364,5.075-43.302,13.894-62.131,25.759l-42.884-42.886l-62.964,62.964l42.884,42.884
	c-11.864,18.829-20.684,39.767-25.758,62.131H0v89.043h60.625c5.075,22.364,13.894,43.302,25.759,62.131l-42.886,42.884
	l62.963,62.964l42.884-42.884c18.829,11.865,39.768,20.684,62.131,25.759V512h44.522l22.261-72.348l-22.261-72.348
	C194.528,367.304,144.696,317.472,144.696,256z"/>
<path style="fill:#446080;" d="M512,300.522v-89.043h-60.625c-5.076-22.364-13.894-43.302-25.759-62.131l42.884-42.884
	l-62.963-62.964l-42.884,42.884c-18.829-11.864-39.767-20.684-62.131-25.758V0H256v144.696c61.472,0,111.304,49.832,111.304,111.304
	S317.472,367.304,256,367.304V512h44.522v-60.625c22.364-5.076,43.302-13.894,62.131-25.759l42.884,42.884l62.964-62.964
	l-42.884-42.884c11.865-18.829,20.684-39.768,25.759-62.131H512V300.522z"/>
<g>
</g>
<g>
</g>
<g>
</g>
<g>
</g>
<g>
</g>
<g>
</g>
<g>
</g>
<g>
</g>
<g>
</g>
<g>
</g>
<g>
</g>
<g>
</g>
<g>
</g>
<g>
</g>
<g>
</g>
</svg>
